<?xml version="1.0" encoding="UTF-8" standalone="no"?>
<svg
   xmlns:dc="http://purl.org/dc/elements/1.1/"
   xmlns:cc="http://creativecommons.org/ns#"
   xmlns:rdf="http://www.w3.org/1999/02/22-rdf-syntax-ns#"
   xmlns:svg="http://www.w3.org/2000/svg"
   xmlns="http://www.w3.org/2000/svg"
   xmlns:xlink="http://www.w3.org/1999/xlink"
   xmlns:sodipodi="http://sodipodi.sourceforge.net/DTD/sodipodi-0.dtd"
   xmlns:inkscape="http://www.inkscape.org/namespaces/inkscape"
   sodipodi:docname="header.svg"
   inkscape:version="1.0 (4035a4fb49, 2020-05-01)"
   width="16in"
   height="1.5in"
   viewBox="0 0 406.4 38.100001"
   version="1.1"
   id="svg8">
  <defs
     id="defs2">
    <marker
       inkscape:isstock="true"
       style="overflow:visible;"
       id="Arrow1Mend"
       refX="0.0"
       refY="0.0"
       orient="auto"
       inkscape:stockid="Arrow1Mend">
      <path
         transform="scale(0.4) rotate(180) translate(10,0)"
         style="fill-rule:evenodd;stroke:#a734ec;stroke-width:1pt;stroke-opacity:1;fill:#a734ec;fill-opacity:1"
         d="M 0.0,0.0 L 5.0,-5.0 L -12.5,0.0 L 5.0,5.0 L 0.0,0.0 z "
         id="path909" />
    </marker>
    <marker
       inkscape:isstock="true"
       style="overflow:visible;"
       id="Arrow2Lend"
       refX="0.0"
       refY="0.0"
       orient="auto"
       inkscape:stockid="Arrow2Lend">
      <path
         transform="scale(1.1) rotate(180) translate(1,0)"
         d="M 8.7185878,4.0337352 L -2.2072895,0.016013256 L 8.7185884,-4.0017078 C 6.9730900,-1.6296469 6.9831476,1.6157441 8.7185878,4.0337352 z "
         style="fill-rule:evenodd;stroke-width:0.625;stroke-linejoin:round;stroke:#a734ec;stroke-opacity:1;fill:#a734ec;fill-opacity:1"
         id="path921" />
    </marker>
    <marker
       inkscape:isstock="true"
       style="overflow:visible"
       id="Tail"
       refX="0.0"
       refY="0.0"
       orient="auto"
       inkscape:stockid="Tail">
      <g
         style="stroke:#a734ec;stroke-opacity:1;fill:#a734ec;fill-opacity:1"
         transform="scale(-1.2)"
         id="g948">
        <path
           style="fill:#a734ec;fill-rule:evenodd;stroke:#a734ec;stroke-width:0.8;stroke-linecap:round;stroke-opacity:1;fill-opacity:1"
           d="M -3.8048674,-3.9585227 L 0.54352094,0"
           id="path936" />
        <path
           style="fill:#a734ec;fill-rule:evenodd;stroke:#a734ec;stroke-width:0.8;stroke-linecap:round;stroke-opacity:1;fill-opacity:1"
           d="M -1.2866832,-3.9585227 L 3.0617053,0"
           id="path938" />
        <path
           style="fill:#a734ec;fill-rule:evenodd;stroke:#a734ec;stroke-width:0.8;stroke-linecap:round;stroke-opacity:1;fill-opacity:1"
           d="M 1.3053582,-3.9585227 L 5.6537466,0"
           id="path940" />
        <path
           style="fill:#a734ec;fill-rule:evenodd;stroke:#a734ec;stroke-width:0.8;stroke-linecap:round;stroke-opacity:1;fill-opacity:1"
           d="M -3.8048674,4.1775838 L 0.54352094,0.21974226"
           id="path942" />
        <path
           style="fill:#a734ec;fill-rule:evenodd;stroke:#a734ec;stroke-width:0.8;stroke-linecap:round;stroke-opacity:1;fill-opacity:1"
           d="M -1.2866832,4.1775838 L 3.0617053,0.21974226"
           id="path944" />
        <path
           style="fill:#a734ec;fill-rule:evenodd;stroke:#a734ec;stroke-width:0.8;stroke-linecap:round;stroke-opacity:1;fill-opacity:1"
           d="M 1.3053582,4.1775838 L 5.6537466,0.21974226"
           id="path946" />
      </g>
    </marker>
    <marker
       inkscape:isstock="true"
       style="overflow:visible;"
       id="Arrow1Lend"
       refX="0.0"
       refY="0.0"
       orient="auto"
       inkscape:stockid="Arrow1Lend">
      <path
         transform="scale(0.8) rotate(180) translate(12.5,0)"
         style="fill-rule:evenodd;stroke:#a734ec;stroke-width:1pt;stroke-opacity:1;fill:#a734ec;fill-opacity:1"
         d="M 0.0,0.0 L 5.0,-5.0 L -12.5,0.0 L 5.0,5.0 L 0.0,0.0 z "
         id="path903" />
    </marker>
    <marker
       inkscape:isstock="true"
       style="overflow:visible"
       id="marker1172"
       refX="0.0"
       refY="0.0"
       orient="auto"
       inkscape:stockid="Arrow1Lstart">
      <path
         transform="scale(0.8) translate(12.5,0)"
         style="fill-rule:evenodd;stroke:#a734ec;stroke-width:1pt;stroke-opacity:1;fill:#a734ec;fill-opacity:1"
         d="M 0.0,0.0 L 5.0,-5.0 L -12.5,0.0 L 5.0,5.0 L 0.0,0.0 z "
         id="path1170" />
    </marker>
    <marker
       inkscape:isstock="true"
       style="overflow:visible"
       id="Arrow1Lstart"
       refX="0.0"
       refY="0.0"
       orient="auto"
       inkscape:stockid="Arrow1Lstart">
      <path
         transform="scale(0.8) translate(12.5,0)"
         style="fill-rule:evenodd;stroke:#000000;stroke-width:1.0pt"
         d="M 0.0,0.0 L 5.0,-5.0 L -12.5,0.0 L 5.0,5.0 L 0.0,0.0 z "
         id="path900" />
    </marker>
    <inkscape:perspective
       id="perspective884"
       inkscape:persp3d-origin="198.37299 : 22.675828 : 1"
       inkscape:vp_z="243.56875 : 46.724877 : 1"
       inkscape:vp_y="0 : 1000 : 0"
       inkscape:vp_x="120.35354 : 48.012081 : 1"
       sodipodi:type="inkscape:persp3d" />
    <linearGradient
       id="linearGradient861"
       inkscape:collect="always">
      <stop
         id="stop857"
         offset="0"
         style="stop-color:#63ea8c;stop-opacity:1" />
      <stop
         id="stop859"
         offset="1"
         style="stop-color:#ffffff;stop-opacity:0" />
    </linearGradient>
    <linearGradient
       id="linearGradient839"
       inkscape:collect="always">
      <stop
         id="stop835"
         offset="0"
         style="stop-color:#ffffff;stop-opacity:1" />
      <stop
         id="stop837"
         offset="1"
         style="stop-color:#000000;stop-opacity:0;" />
    </linearGradient>
    <radialGradient
       gradientUnits="userSpaceOnUse"
       gradientTransform="matrix(1.1671122,0,0,1.059039,-2.2217103,-0.33608329)"
       r="28.88487"
       fy="8.2177391"
       fx="11.00249"
       cy="8.2177391"
       cx="11.00249"
       id="radialGradient841"
       xlink:href="#linearGradient839"
       inkscape:collect="always" />
    <linearGradient
       gradientUnits="userSpaceOnUse"
       y2="49.621086"
       x2="80.737488"
       y1="-27.611128"
       x1="78.519417"
       id="linearGradient863"
       xlink:href="#linearGradient861"
       inkscape:collect="always" />
  </defs>
  <sodipodi:namedview
     inkscape:window-maximized="1"
     inkscape:window-y="-8"
     inkscape:window-x="-8"
     inkscape:window-height="1377"
     inkscape:window-width="2560"
     units="in"
     showgrid="false"
     inkscape:document-rotation="0"
     inkscape:current-layer="layer4"
     inkscape:document-units="in"
     inkscape:cy="112.03333"
     inkscape:cx="1425.331"
     inkscape:zoom="2.3255208"
     inkscape:pageshadow="2"
     inkscape:pageopacity="1"
     borderopacity="1.0"
     bordercolor="#666666"
     pagecolor="#000000"
     id="base" />
  <metadata
     id="metadata5">
    <rdf:RDF>
      <cc:Work
         rdf:about="">
        <dc:format>image/svg+xml</dc:format>
        <dc:type
           rdf:resource="http://purl.org/dc/dcmitype/StillImage" />
        <dc:title></dc:title>
      </cc:Work>
    </rdf:RDF>
  </metadata>
  <g
     inkscape:label="bg"
     id="layer2"
     inkscape:groupmode="layer">
    <rect
       y="0"
       x="0"
       height="38.100002"
       width="406.39999"
       id="rect855"
       style="fill:url(#linearGradient863);stroke:none;stroke-width:0.2;fill-opacity:1" />
  </g>
  <g
     id="layer1"
     inkscape:groupmode="layer"
     inkscape:label="Layer 1">
    <path
       d="M 10.61943,8.3668232 C 12.071542,9.0767452 10.37889,10.674492 9.4394925,10.78033 6.8937834,11.067142 5.4734458,8.1678722 5.7924168,6.006949 6.3629811,2.1415643 10.638884,0.24383477 14.159241,1.126304 19.325507,2.4213631 21.758614,8.2320021 20.273455,13.086572 18.293972,19.556949 10.90024,22.538058 4.719744,20.434355 -3.0577791,17.78706 -6.5918844,8.7898354 -3.8616088,1.2872005 -0.55487907,-7.7994956 10.056316,-11.889188 18.878989,-8.5277215 29.276205,-4.5663494 33.923033,7.6649117 29.927481,17.80632 25.314458,29.514978 11.459268,34.719949 -4.4797541e-6,30.088381 -13.020758,24.825699 -18.784571,9.3439752 -13.515634,-3.432548 -7.6046839,-17.765876 9.5054123,-24.089035 23.598738,-18.181747 39.245,-11.623538 46.127881,7.1162792 39.581506,22.526069"
       sodipodi:t0="0"
       sodipodi:argument="-18.394836"
       sodipodi:radius="32.237961"
       sodipodi:revolution="3"
       sodipodi:expansion="1"
       sodipodi:cy="8.3668232"
       sodipodi:cx="10.61943"
       id="path833"
       style="mix-blend-mode:overlay;fill:none;fill-rule:evenodd;stroke:url(#radialGradient841);stroke-width:0.264583"
       sodipodi:type="spiral" />
  </g>
  <g
     style="mix-blend-mode:normal;opacity:1"
     inkscape:label="Layer 2"
     id="layer3"
     inkscape:groupmode="layer">
    <path
       inkscape:transform-center-y="0.85429956"
       inkscape:transform-center-x="0.89497678"
       d="m 59.372266,42.316819 -3.52424,-11.486622 -11.460351,-3.608758 9.835377,-6.901313 -0.109311,-12.0146088 9.602838,7.2213768 11.392793,-3.816679 -3.900498,11.364369 7.150445,9.655771 -12.013478,-0.19781 z"
       inkscape:randomized="0"
       inkscape:rounded="0"
       inkscape:flatsided="false"
       sodipodi:arg2="2.3598776"
       sodipodi:arg1="1.7315591"
       sodipodi:r2="9.046627"
       sodipodi:r1="18.093254"
       sodipodi:cy="24.456869"
       sodipodi:cx="62.268475"
       sodipodi:sides="5"
       id="path1190"
       style="fill:#bbff68;fill-opacity:0.4041096;stroke:#2ade9f;stroke-width:0.755999;stroke-linecap:round;stroke-linejoin:round;stroke-miterlimit:4;stroke-dasharray:0.755999, 1.51200000000000001;stroke-dashoffset:0;stroke-opacity:0.7465753"
       sodipodi:type="star" />
    <path
       inkscape:transform-center-y="-0.27218782"
       inkscape:transform-center-x="-1.6298924"
       d="m 80.636545,30.327095 c -2.105327,0.971161 -3.482651,-5.013343 -5.785041,-4.740296 -2.30239,0.273048 -2.241754,6.413702 -4.515834,5.961908 -2.274079,-0.451794 0.129246,-6.10293 -1.893921,-7.235341 -2.023166,-1.132411 -5.583496,3.871124 -7.157707,2.168945 -1.574211,-1.70218 3.691774,-4.861407 2.720613,-6.966734 -0.971162,-2.105326 -6.792533,-0.150091 -7.065581,-2.452481 -0.273047,-2.302391 5.844171,-1.76299 6.295965,-4.03707 0.451794,-2.274079 -5.407053,-4.1139774 -4.274642,-6.1371434 1.132411,-2.0231661 5.764293,2.0088288 7.466472,0.4346176 1.70218,-1.5742111 -1.956262,-6.5064639 0.149065,-7.47762516 2.105326,-0.97116134 3.482651,5.01334306 5.785041,4.74029546 2.30239,-0.2730475 2.241754,-6.4137021 4.515833,-5.961908 2.27408,0.45179406 -0.129245,6.1029307 1.893921,7.2353416 2.023166,1.1324108 5.583497,-3.8711242 7.157708,-2.1689448 1.574211,1.7021796 -3.691775,4.8614063 -2.720613,6.9667337 0.971161,2.105326 6.792533,0.150091 7.065581,2.452481 0.273047,2.30239 -5.844171,1.76299 -6.295965,4.03707 -0.451794,2.274079 5.407053,4.113977 4.274642,6.137143 -1.132411,2.023166 -5.764293,-2.008829 -7.466473,-0.434617 -1.702179,1.574211 1.956263,6.506464 -0.149064,7.477625 z"
       inkscape:randomized="0"
       inkscape:rounded="0.31"
       inkscape:flatsided="false"
       sodipodi:arg2="1.4527546"
       sodipodi:arg1="1.1385953"
       sodipodi:r2="10.573896"
       sodipodi:r1="16.783962"
       sodipodi:cy="15.086485"
       sodipodi:cx="73.606239"
       sodipodi:sides="10"
       id="path1192"
       style="fill:#ffc568;fill-opacity:0.4041096;stroke:#5c73de;stroke-width:0.755999;stroke-linecap:round;stroke-linejoin:round;stroke-miterlimit:4;stroke-dasharray:0.755999, 1.51200000000000001;stroke-dashoffset:0;stroke-opacity:0.7465753"
       sodipodi:type="star" />
  </g>
  <g
     inkscape:label="txt"
     id="layer4"
     inkscape:groupmode="layer">
    <text
       id="text1202"
       style="font-size:16.9333px;line-height:1.25;font-family:'Garamond Premier Pro';-inkscape-font-specification:'Garamond Premier Pro';letter-spacing:1.05833px;word-spacing:3.96875px;opacity:1;mix-blend-mode:normal;fill:#ffffff;fill-opacity:1;stroke-width:0.264583"
       xml:space="preserve"><textPath
         id="textPath1212"
         xlink:href="#path1210"><tspan
           dy="-6"
           id="tspan1200"
           style="font-style:normal;font-variant:normal;font-weight:normal;font-stretch:normal;font-size:16.9333px;font-family:'New Shape';-inkscape-font-specification:'New Shape';fill:#ffffff;fill-opacity:1;stroke-width:0.264583">This Portfolio Is Peters</tspan></textPath></text>
  </g>
  <g
     inkscape:label="txtpath"
     id="layer5"
     inkscape:groupmode="layer">
    <path
       sodipodi:nodetypes="cc"
       id="path1210"
       d="M 107.4815,26.065873 C 213.83548,57.110624 287.99407,1.2626551 355.58998,28.962081"
       style="fill:none;stroke:#a734ec;stroke-width:2.70000004;stroke-linecap:round;stroke-linejoin:round;stroke-opacity:1;stroke-miterlimit:4;stroke-dasharray:none;marker-end:url(#Arrow1Mend)" />
  </g>
</svg>
